# xmcd CD database file
#
# Track frame offsets:
#	150
#	35696
#	59642
#	83448
#	99448
#	115350
#	133387
#	146104
#	163010
#	193195
#	210758
#	233187
#	264470
#	280168
#	295067
#	310188
#	327942
#
# Disc length: 4666 seconds
#
# Revision: 0
# Processed by: cddbd v1.5.1PL2 Copyright (c) Steve Scherf et al.
# Submitted via: CDex 1.50
#
DISCID=00123811
DTITLE=Alabama - Livin' Lovin' Rockin' Rollin' - The 25th Anniversary Collection [Disc 3]
DYEAR=2006
DGENRE=Country
TTITLE0=Tennessee River [Live]
TTITLE1=Vacation [Live]
TTITLE2=She And I
TTITLE3=Sad Lookin' Moon
TTITLE4=Give Me One More Shot
TTITLE5=Fallin' Again
TTITLE6=I'm In A Hurry (And Don't Know Why)
TTITLE7=Can't Keep A Good Man Down [Live]
TTITLE8=If It Ain't Dixie (It Won't Do) [Live]
TTITLE9=The Cheap Seats
TTITLE10=Gonna Have A Party [Live]
TTITLE11=When It All Goes South [Extended Version]
TTITLE12=Down Home
TTITLE13=Born Country
TTITLE14=Ripperly O' Tucke
TTITLE15=Hats Off
TTITLE16=The Fans
EXTD=YEAR: 2006
EXTT0=
EXTT1=
EXTT2=
EXTT3=
EXTT4=
EXTT5=
EXTT6=
EXTT7=
EXTT8=
EXTT9=
EXTT10=
EXTT11=
EXTT12=
EXTT13=
EXTT14=
EXTT15=
EXTT16=
PLAYORDER=
